<svg xmlns="http://www.w3.org/2000/svg" version="1.1" xmlns:xlink="http://www.w3.org/1999/xlink"
    xmlns:svgjs="http://svgjs.dev/svgjs" viewBox="0 0 1000 244">
    <g transform="matrix(1,0,0,1,-0.6060606060606233,0.29912793966883555)"><svg viewBox="0 0 396 97"
            data-background-color="#5c3a37" preserveAspectRatio="xMidYMid meet" height="244" width="1000"
            xmlns="http://www.w3.org/2000/svg" xmlns:xlink="http://www.w3.org/1999/xlink">
            <defs></defs>
            <g id="tight-bounds" transform="matrix(1,0,0,1,0.2400000000000091,-0.1189156153601516)"><svg
                    viewBox="0 0 395.52 97.23783123072033" height="97.23783123072033" width="395.52">
                    <g><svg viewBox="0 0 592.8129363442749 145.74192014470157" height="97.23783123072033"
                            width="395.52">
                            <g>
                                <rect width="8.383488809794262" height="145.74192014470157" x="166.96314174967893" y="0"
                                    fill="#f9d995" opacity="1" stroke-width="0" stroke="transparent" fill-opacity="1"
                                    class="rect-si-0" data-fill-palette-color="primary" rx="1%" id="si-0"
                                    data-palette-color="#f9d995"></rect>
                            </g>
                            <g transform="matrix(1,0,0,1,197.29293634427492,0.36254208991218206)"><svg
                                    viewBox="0 0 395.52 145.0168359648772" height="145.0168359648772" width="395.52">
                                    <g><svg viewBox="0 0 395.52 145.0168359648772" height="145.0168359648772"
                                            width="395.52">
                                            <g><svg viewBox="0 0 395.52 101.5177505407354" height="101.5177505407354"
                                                    width="395.52">
                                                    <g transform="matrix(1,0,0,1,0,0)"><svg width="395.52"
                                                            viewBox="2.1500000000000017 -32.2 138.7 32.6"
                                                            height="101.5177505407354"
                                                            data-palette-color="#f9d995"><svg></svg>
                                                            <g class="undefined-text-0"
                                                                data-fill-palette-color="primary" id="text-0">
                                                                <path
                                                                    d="M15.9-32.2c1.633 0 3.2 0.223 4.7 0.67 1.5 0.453 2.85 1.113 4.05 1.98v0l-0.55 2.35-0.4 0.05c-2.333-1.867-4.967-2.8-7.9-2.8v0c-3.567 0-6.29 1.2-8.17 3.6-1.887 2.4-2.83 5.867-2.83 10.4v0c0 4.533 0.917 7.99 2.75 10.37 1.833 2.387 4.467 3.58 7.9 3.58v0c1.533 0 3.05-0.277 4.55-0.83 1.5-0.547 2.9-1.32 4.2-2.32v0l0.4 0.15-0.2 2.45c-2.867 1.9-5.9 2.85-9.1 2.85v0c-4.2 0-7.44-1.393-9.72-4.18-2.287-2.78-3.43-6.753-3.43-11.92v0c0-5.233 1.193-9.277 3.58-12.13 2.38-2.847 5.77-4.27 10.17-4.27zM70-31.95l-11.95 31.95h-2.65l-7-20.15h-0.25l-7.5 20.15h-2.65l-10.8-31.95h2.65l0.6 2.65 8.9 26.15h0.25l7.65-20.6-2.85-8.2h2.7l0.7 2.85 8.9 25.95h0.3l9.75-26.05 0.7-2.75zM78.2-31.95l-0.1 22.1 0.1 9.85h-2.6l0.1-9.7-0.1-22.25zM95.9-31.95l-13.85 14.95c4.567 5.733 9.467 11.217 14.7 16.45v0 0.35c-0.5 0.2-1.283 0.4-2.35 0.6v0l-0.35-0.15c-5.533-5.8-10.483-11.5-14.85-17.1v0-0.2l11.5-12.35 2.1-2.55zM140.85-31.95l-11.95 31.95h-2.65l-7-20.15h-0.25l-7.5 20.15h-2.65l-10.8-31.95h2.65l0.6 2.65 8.9 26.15h0.25l7.65-20.6-2.85-8.2h2.7l0.7 2.85 8.9 25.95h0.3l9.75-26.05 0.7-2.75z"
                                                                    data-fill-palette-color="primary" fill="#f9d995"
                                                                    opacity="1"></path>
                                                            </g>
                                                        </svg></g>
                                                </svg></g>
                                            <g transform="matrix(1,0,0,1,0,123.46405632553714)"><svg
                                                    viewBox="0 0 375.74399999999997 21.55277963934007"
                                                    height="21.55277963934007" width="375.74399999999997">
                                                    <g transform="matrix(1,0,0,1,0,0)"><svg width="375.74399999999997"
                                                            viewBox="1.4 -35.1 781.8100000000001 44.85"
                                                            height="21.55277963934007" data-palette-color="#edbbba">
                                                            <path
                                                                d="M16.8-32.6Q21.5-32.6 25.25-30.65L25.25-30.65 24.05-25 23.5-24.75Q22-25.8 20.2-26.4 18.4-27 16.5-27L16.5-27Q8.55-27 8.55-16.55L8.55-16.55Q8.55-10.9 10.63-8.08 12.7-5.25 16.7-5.25L16.7-5.25Q18.55-5.25 20.53-5.83 22.5-6.4 24.1-7.4L24.1-7.4 24.7-7.05 24.15-1.3Q20.35 0.45 16.15 0.45L16.15 0.45Q8.95 0.45 5.18-3.75 1.4-7.95 1.4-15.8L1.4-15.8Q1.4-23.8 5.43-28.2 9.45-32.6 16.8-32.6L16.8-32.6ZM43.25 0L43.6-14.5Q43.65-16.3 42.85-17.25 42.05-18.2 40.5-18.2L40.5-18.2Q38.25-18.2 35.7-16.05L35.7-16.05 35.6-10.25 35.95 0 29.3 0 29.65-9.65 29.35-34.6 36-35.1 35.75-19.95 36.05-19.95Q38.8-22.45 42.1-23.55L42.1-23.55Q45.9-23.55 47.87-21.83 49.85-20.1 49.8-16.85L49.8-16.85 49.65-10.2 49.9 0 43.25 0ZM74.5-11.6L73.75-10.8 60.25-10.7Q60.7-4.45 66.6-4.45L66.6-4.45Q69.7-4.45 73.5-6.2L73.5-6.2 74.05-5.85 73.05-0.9Q69.25 0.5 65.9 0.5L65.9 0.5Q60.4 0.5 57.27-2.7 54.15-5.9 54.15-11.55L54.15-11.55Q54.15-17.15 57.2-20.43 60.25-23.7 65.45-23.7L65.45-23.7Q69.9-23.7 72.32-21.28 74.75-18.85 74.75-14.5L74.75-14.5Q74.75-13.35 74.5-11.6L74.5-11.6ZM68.85-14.55L68.95-15.25Q68.95-17.25 68.05-18.28 67.15-19.3 65.4-19.3L65.4-19.3Q63.45-19.3 62.15-18.03 60.85-16.75 60.4-14.35L60.4-14.35 68.85-14.55ZM92.19-23.3Q92.64-23.3 93.44-23.2L93.44-23.2 93.44-17.05 92.74-16.8Q91.89-17.15 90.89-17.15L90.89-17.15Q87.99-17.15 85.64-13.4L85.64-13.4 85.64-10.25 85.99 0 79.34 0 79.74-9.6 79.44-22.8 85.74-23.35 85.69-18.8 86.09-18.8Q88.54-23.3 92.19-23.3L92.19-23.3ZM106.39-23.7Q111.49-23.7 114.19-20.7 116.89-17.7 116.89-12.05L116.89-12.05Q116.89-5.95 113.99-2.73 111.09 0.5 105.64 0.5L105.64 0.5Q100.54 0.5 97.84-2.5 95.14-5.5 95.14-11.15L95.14-11.15Q95.14-17.25 98.04-20.48 100.94-23.7 106.39-23.7L106.39-23.7ZM105.94-19.2Q103.54-19.2 102.47-17.6 101.39-16 101.39-12.45L101.39-12.45Q101.39-7.85 102.49-5.9 103.59-3.95 106.09-3.95L106.09-3.95Q108.49-3.95 109.57-5.53 110.64-7.1 110.64-10.7L110.64-10.7Q110.64-15.25 109.52-17.23 108.39-19.2 105.94-19.2L105.94-19.2ZM128.34-35.1L127.94-10.25 128.29 0 121.64 0 121.99-9.65 121.69-34.6 128.34-35.1ZM142.29-23.25L134.69-12.75Q137.39-8.4 142.79-1.1L142.79-1.1 142.74-0.4Q140.99 0 139.01 0.23 137.04 0.45 136.59 0.5L136.59 0.5 135.89 0.2Q131.49-6 128.29-12.15L128.29-12.15 128.29-12.6 134.09-20.85 135.29-23.25 142.29-23.25ZM164.14-11.6L163.39-10.8 149.89-10.7Q150.34-4.45 156.24-4.45L156.24-4.45Q159.34-4.45 163.14-6.2L163.14-6.2 163.69-5.85 162.69-0.9Q158.89 0.5 155.54 0.5L155.54 0.5Q150.04 0.5 146.91-2.7 143.79-5.9 143.79-11.55L143.79-11.55Q143.79-17.15 146.84-20.43 149.89-23.7 155.09-23.7L155.09-23.7Q159.54-23.7 161.96-21.28 164.39-18.85 164.39-14.5L164.39-14.5Q164.39-13.35 164.14-11.6L164.14-11.6ZM158.49-14.55L158.59-15.25Q158.59-17.25 157.69-18.28 156.79-19.3 155.04-19.3L155.04-19.3Q153.09-19.3 151.79-18.03 150.49-16.75 150.04-14.35L150.04-14.35 158.49-14.55ZM187.73-11.6L186.98-10.8 173.48-10.7Q173.93-4.45 179.83-4.45L179.83-4.45Q182.93-4.45 186.73-6.2L186.73-6.2 187.28-5.85 186.28-0.9Q182.48 0.5 179.13 0.5L179.13 0.5Q173.63 0.5 170.51-2.7 167.38-5.9 167.38-11.55L167.38-11.55Q167.38-17.15 170.43-20.43 173.48-23.7 178.68-23.7L178.68-23.7Q183.13-23.7 185.56-21.28 187.98-18.85 187.98-14.5L187.98-14.5Q187.98-13.35 187.73-11.6L187.73-11.6ZM182.08-14.55L182.18-15.25Q182.18-17.25 181.28-18.28 180.38-19.3 178.63-19.3L178.63-19.3Q176.68-19.3 175.38-18.03 174.08-16.75 173.63-14.35L173.63-14.35 182.08-14.55ZM200.38-23.65Q203.78-23.65 206.78-22.5L206.78-22.5 205.88-17.6 205.08-17.35Q203.63-18.3 202.18-18.8 200.73-19.3 199.63-19.3L199.63-19.3Q198.43-19.3 197.73-18.68 197.03-18.05 197.03-17.15L197.03-17.15Q197.03-16.1 197.96-15.45 198.88-14.8 200.88-14L200.88-14Q202.88-13.2 204.18-12.45 205.48-11.7 206.41-10.38 207.33-9.05 207.33-7.1L207.33-7.1Q207.33-5.1 206.31-3.38 205.28-1.65 203.18-0.58 201.08 0.5 198.03 0.5L198.03 0.5Q194.43 0.5 190.58-1L190.58-1 191.33-6.2 191.98-6.6Q193.53-5.3 195.43-4.53 197.33-3.75 198.78-3.75L198.78-3.75Q200.13-3.75 200.88-4.42 201.63-5.1 201.63-6.05L201.63-6.05Q201.63-7.1 200.71-7.75 199.78-8.4 197.78-9.2L197.78-9.2Q195.73-10.1 194.43-10.83 193.13-11.55 192.21-12.9 191.28-14.25 191.28-16.25L191.28-16.25Q191.28-19.5 193.73-21.58 196.18-23.65 200.38-23.65L200.38-23.65ZM261.18-32.2L250.58 0 243.48 0 238.68-15.4 238.23-15.4 233.38 0 226.23 0 217.23-32.2 223.88-32.2 224.38-28.25 230.08-7 230.53-7 235.98-24.35 233.68-32.2 240.58-32.2 241.33-27.55 247.13-7 247.58-7 254.08-27.8 254.88-32.2 261.18-32.2ZM275.17-23.3Q275.62-23.3 276.42-23.2L276.42-23.2 276.42-17.05 275.72-16.8Q274.87-17.15 273.87-17.15L273.87-17.15Q270.97-17.15 268.62-13.4L268.62-13.4 268.62-10.25 268.97 0 262.32 0 262.72-9.6 262.42-22.8 268.72-23.35 268.67-18.8 269.07-18.8Q271.52-23.3 275.17-23.3L275.17-23.3ZM279.82 0L280.17-9.6 279.92-22.8 286.47-23.35 286.17-10.25 286.47 0 279.82 0ZM283.32-34.65Q284.87-34.65 285.75-33.75 286.62-32.85 286.62-31.25L286.62-31.25Q286.62-29.55 285.67-28.55 284.72-27.55 283.07-27.55L283.07-27.55Q281.42-27.55 280.55-28.45 279.67-29.35 279.67-31L279.67-31Q279.67-32.65 280.65-33.65 281.62-34.65 283.32-34.65L283.32-34.65ZM302.17-4.9Q303.77-4.9 305.52-5.75L305.52-5.75 306.07-5.25 305.42-1.3Q302.87 0 300.22 0.3L300.22 0.3Q293.47-0.4 293.47-6.3L293.47-6.3 293.72-10.45 293.67-19.05 290.57-19.05 290.32-19.4 290.67-23.05 293.62-23.05 293.62-26.9 299.67-28.85 300.12-28.45 299.97-23.05 305.92-23.05 306.12-22.7 305.82-19.05 299.87-19.05 299.57-7.85Q299.57-6.25 300.17-5.58 300.77-4.9 302.17-4.9L302.17-4.9ZM309.77 0L310.12-9.6 309.87-22.8 316.42-23.35 316.12-10.25 316.42 0 309.77 0ZM313.27-34.65Q314.82-34.65 315.69-33.75 316.57-32.85 316.57-31.25L316.57-31.25Q316.57-29.55 315.62-28.55 314.67-27.55 313.02-27.55L313.02-27.55Q311.37-27.55 310.49-28.45 309.62-29.35 309.62-31L309.62-31Q309.62-32.65 310.59-33.65 311.57-34.65 313.27-34.65L313.27-34.65ZM336.61 0L337.01-14.5Q337.06-16.25 336.24-17.23 335.41-18.2 333.86-18.2L333.86-18.2Q331.61-18.2 329.06-16.05L329.06-16.05 329.06-10.25 329.36 0 322.71 0 323.06-9.6 322.81-22.8 329.11-23.35 329.11-19.95 329.46-19.95Q332.21-22.45 335.46-23.55L335.46-23.55Q339.26-23.55 341.26-21.83 343.26-20.1 343.16-16.85L343.16-16.85 343.01-10.2 343.31 0 336.61 0ZM371.51-20.1Q370.16-19.75 367.66-19.35L367.66-19.35 367.56-19.15Q368.31-17.65 368.31-15.8L368.31-15.8Q368.31-12.05 365.59-9.83 362.86-7.6 358.21-7.6L358.21-7.6Q356.81-7.6 355.31-7.85L355.31-7.85Q354.86-7.4 354.71-7.15 354.56-6.9 354.56-6.55L354.56-6.55Q354.56-5.65 355.76-5.3 356.96-4.95 359.56-4.6L359.56-4.6Q362.51-4.25 364.49-3.75 366.46-3.25 367.89-2 369.31-0.75 369.31 1.55L369.31 1.55Q369.31 3.9 367.84 5.78 366.36 7.65 363.76 8.7 361.16 9.75 357.86 9.75L357.86 9.75Q353.31 9.75 350.86 7.9 348.41 6.05 348.41 3L348.41 3Q349.96 0.85 352.56-0.75L352.56-0.75 352.56-1Q350.86-1.6 349.91-2.68 348.96-3.75 348.96-5.55L348.96-5.55Q350.31-7.2 352.36-8.6L352.36-8.6 352.36-8.85Q350.56-9.85 349.64-11.48 348.71-13.1 348.71-15.3L348.71-15.3Q348.71-19.2 351.41-21.4 354.11-23.6 358.76-23.6L358.76-23.6Q361.46-23.6 363.66-22.7L363.66-22.7Q367.26-23.35 371.01-24.7L371.01-24.7 371.51-24.25 371.51-20.1ZM358.41-11.6Q360.46-11.6 361.51-12.65 362.56-13.7 362.56-15.7L362.56-15.7Q362.56-19.5 358.66-19.5L358.66-19.5Q354.46-19.5 354.46-15.65L354.46-15.65Q354.46-13.65 355.46-12.63 356.46-11.6 358.41-11.6L358.41-11.6ZM363.71 2.75Q363.71 1.4 362.29 0.9 360.86 0.4 357.91 0.05L357.91 0.05 356.21-0.2Q355.01 0.6 354.41 1.35 353.81 2.1 353.81 2.95L353.81 2.95Q353.81 4.25 355.01 5.05 356.21 5.85 358.51 5.85L358.51 5.85Q360.86 5.85 362.29 5.03 363.71 4.2 363.71 2.75L363.71 2.75ZM402.71-32.2L403.11-31.65 402.71-26.6 396.66-26.9 394.66-26.9 394.41-10.2 394.71 0 387.91 0 388.26-9.6 388.01-26.9 386.01-26.9 379.86-26.6 379.41-27.15 379.86-32.2 402.71-32.2ZM421.2 0L421.55-14.5Q421.6-16.3 420.8-17.25 420-18.2 418.45-18.2L418.45-18.2Q416.2-18.2 413.65-16.05L413.65-16.05 413.55-10.25 413.9 0 407.25 0 407.6-9.65 407.3-34.6 413.95-35.1 413.7-19.95 414-19.95Q416.75-22.45 420.05-23.55L420.05-23.55Q423.85-23.55 425.83-21.83 427.8-20.1 427.75-16.85L427.75-16.85 427.6-10.2 427.85 0 421.2 0ZM452.45-11.6L451.7-10.8 438.2-10.7Q438.65-4.45 444.55-4.45L444.55-4.45Q447.65-4.45 451.45-6.2L451.45-6.2 452-5.85 451-0.9Q447.2 0.5 443.85 0.5L443.85 0.5Q438.35 0.5 435.23-2.7 432.1-5.9 432.1-11.55L432.1-11.55Q432.1-17.15 435.15-20.43 438.2-23.7 443.4-23.7L443.4-23.7Q447.85-23.7 450.28-21.28 452.7-18.85 452.7-14.5L452.7-14.5Q452.7-13.35 452.45-11.6L452.45-11.6ZM446.8-14.55L446.9-15.25Q446.9-17.25 446-18.28 445.1-19.3 443.35-19.3L443.35-19.3Q441.4-19.3 440.1-18.03 438.8-16.75 438.35-14.35L438.35-14.35 446.8-14.55ZM479.1-17Q484.45-9.55 491.45-1.4L491.45-1.4 491.35-0.65Q488.55 0.05 484.75 0.5L484.75 0.5 483.95 0.1Q477.4-8.6 472.3-16.6L472.3-16.6 472.2-10.2 472.45 0 465.7 0 466.05-9.6 465.7-32.2 472.55-32.2 472.3-17.25 481.35-29.1 483.2-32.2 490.5-32.2 479.1-17ZM511.69-11.6L510.94-10.8 497.44-10.7Q497.89-4.45 503.79-4.45L503.79-4.45Q506.89-4.45 510.69-6.2L510.69-6.2 511.24-5.85 510.24-0.9Q506.44 0.5 503.09 0.5L503.09 0.5Q497.59 0.5 494.47-2.7 491.34-5.9 491.34-11.55L491.34-11.55Q491.34-17.15 494.39-20.43 497.44-23.7 502.64-23.7L502.64-23.7Q507.09-23.7 509.52-21.28 511.94-18.85 511.94-14.5L511.94-14.5Q511.94-13.35 511.69-11.6L511.69-11.6ZM506.04-14.55L506.14-15.25Q506.14-17.25 505.24-18.28 504.34-19.3 502.59-19.3L502.59-19.3Q500.64-19.3 499.34-18.03 498.04-16.75 497.59-14.35L497.59-14.35 506.04-14.55ZM535.29-11.6L534.54-10.8 521.04-10.7Q521.49-4.45 527.39-4.45L527.39-4.45Q530.49-4.45 534.29-6.2L534.29-6.2 534.84-5.85 533.84-0.9Q530.04 0.5 526.69 0.5L526.69 0.5Q521.19 0.5 518.07-2.7 514.94-5.9 514.94-11.55L514.94-11.55Q514.94-17.15 517.99-20.43 521.04-23.7 526.24-23.7L526.24-23.7Q530.69-23.7 533.12-21.28 535.54-18.85 535.54-14.5L535.54-14.5Q535.54-13.35 535.29-11.6L535.29-11.6ZM529.64-14.55L529.74-15.25Q529.74-17.25 528.84-18.28 527.94-19.3 526.19-19.3L526.19-19.3Q524.24-19.3 522.94-18.03 521.64-16.75 521.19-14.35L521.19-14.35 529.64-14.55ZM549.54-4.9Q551.14-4.9 552.89-5.75L552.89-5.75 553.44-5.25 552.79-1.3Q550.24 0 547.59 0.3L547.59 0.3Q540.84-0.4 540.84-6.3L540.84-6.3 541.09-10.45 541.04-19.05 537.94-19.05 537.69-19.4 538.04-23.05 540.99-23.05 540.99-26.9 547.04-28.85 547.49-28.45 547.34-23.05 553.29-23.05 553.49-22.7 553.19-19.05 547.24-19.05 546.94-7.85Q546.94-6.25 547.54-5.58 548.14-4.9 549.54-4.9L549.54-4.9ZM566.33-23.7Q571.43-23.7 574.13-20.7 576.83-17.7 576.83-12.05L576.83-12.05Q576.83-5.95 573.93-2.73 571.03 0.5 565.58 0.5L565.58 0.5Q560.48 0.5 557.78-2.5 555.08-5.5 555.08-11.15L555.08-11.15Q555.08-17.25 557.98-20.48 560.88-23.7 566.33-23.7L566.33-23.7ZM565.88-19.2Q563.48-19.2 562.41-17.6 561.33-16 561.33-12.45L561.33-12.45Q561.33-7.85 562.43-5.9 563.53-3.95 566.03-3.95L566.03-3.95Q568.43-3.95 569.51-5.53 570.58-7.1 570.58-10.7L570.58-10.7Q570.58-15.25 569.46-17.23 568.33-19.2 565.88-19.2L565.88-19.2ZM591.03-23.7Q596.13-23.7 598.83-20.7 601.53-17.7 601.53-12.05L601.53-12.05Q601.53-5.95 598.63-2.73 595.73 0.5 590.28 0.5L590.28 0.5Q585.18 0.5 582.48-2.5 579.78-5.5 579.78-11.15L579.78-11.15Q579.78-17.25 582.68-20.48 585.58-23.7 591.03-23.7L591.03-23.7ZM590.58-19.2Q588.18-19.2 587.11-17.6 586.03-16 586.03-12.45L586.03-12.45Q586.03-7.85 587.13-5.9 588.23-3.95 590.73-3.95L590.73-3.95Q593.13-3.95 594.21-5.53 595.28-7.1 595.28-10.7L595.28-10.7Q595.28-15.25 594.16-17.23 593.03-19.2 590.58-19.2L590.58-19.2ZM609.13-23.4L609.68-19.75 612.53-6.7 612.93-6.7 616.43-19.4 617.23-23.25 623.68-23.25 624.18-19.75 627.13-6.75 627.53-6.75 630.93-19.4 631.73-23.25 637.33-23.25 630.08 0 623.83 0 620.28-14.95 619.83-14.95 615.68 0 609.13 0 603.08-23.1 609.13-23.4ZM648.88-23.7Q652.73-23.7 654.9-21.98 657.08-20.25 657.08-17.15L657.08-17.15Q657.08-16.25 656.78-11.45L656.78-11.45Q656.73-10.05 656.63-8.58 656.53-7.1 656.53-6.05L656.53-6.05Q656.53-5.2 656.78-4.88 657.03-4.55 657.68-4.55L657.68-4.55Q658.18-4.55 658.98-4.75L658.98-4.75 659.48-4.35 658.88-0.85Q657.28 0.2 655.23 0.4L655.23 0.4Q653.73 0.25 652.73-0.68 651.73-1.6 651.38-3.25L651.38-3.25 651.03-3.25Q648.53-0.6 645.88 0.45L645.88 0.45Q642.28 0.4 640.23-1.45 638.18-3.3 638.18-6.5L638.18-6.5Q638.18-9 639.45-10.43 640.73-11.85 643.33-12.35L643.33-12.35 650.98-13.8 650.98-15.85Q650.98-19.1 647.78-19.1L647.78-19.1Q646.23-19.1 644.5-18.4 642.78-17.7 640.63-16.2L640.63-16.2 640.13-16.5 639.38-20.9Q641.53-22.25 643.98-22.98 646.43-23.7 648.88-23.7L648.88-23.7ZM650.93-10.45L645.63-9.3Q644.83-9.1 644.45-8.63 644.08-8.15 644.08-7.2L644.08-7.2Q644.08-5.9 644.78-5.18 645.48-4.45 646.73-4.45L646.73-4.45Q648.68-4.45 650.83-6.75L650.83-6.75 650.93-10.45ZM677.92 0L678.27-14.5Q678.32-16.3 677.52-17.25 676.72-18.2 675.17-18.2L675.17-18.2Q672.92-18.2 670.37-16.05L670.37-16.05 670.27-10.25 670.62 0 663.97 0 664.32-9.65 664.02-34.6 670.67-35.1 670.42-19.95 670.72-19.95Q673.47-22.45 676.77-23.55L676.77-23.55Q680.57-23.55 682.55-21.83 684.52-20.1 684.47-16.85L684.47-16.85 684.32-10.2 684.57 0 677.92 0ZM739.82-32.2L729.22 0 722.12 0 717.32-15.4 716.87-15.4 712.02 0 704.87 0 695.87-32.2 702.52-32.2 703.02-28.25 708.72-7 709.17-7 714.62-24.35 712.32-32.2 719.22-32.2 719.97-27.55 725.77-7 726.22-7 732.72-27.8 733.52-32.2 739.82-32.2ZM749.42-23.7Q753.27-23.7 755.44-21.98 757.62-20.25 757.62-17.15L757.62-17.15Q757.62-16.25 757.32-11.45L757.32-11.45Q757.27-10.05 757.17-8.58 757.07-7.1 757.07-6.05L757.07-6.05Q757.07-5.2 757.32-4.88 757.57-4.55 758.22-4.55L758.22-4.55Q758.72-4.55 759.52-4.75L759.52-4.75 760.02-4.35 759.42-0.85Q757.82 0.2 755.77 0.4L755.77 0.4Q754.27 0.25 753.27-0.68 752.27-1.6 751.92-3.25L751.92-3.25 751.57-3.25Q749.07-0.6 746.42 0.45L746.42 0.45Q742.82 0.4 740.77-1.45 738.72-3.3 738.72-6.5L738.72-6.5Q738.72-9 739.99-10.43 741.27-11.85 743.87-12.35L743.87-12.35 751.52-13.8 751.52-15.85Q751.52-19.1 748.32-19.1L748.32-19.1Q746.77-19.1 745.04-18.4 743.32-17.7 741.17-16.2L741.17-16.2 740.67-16.5 739.92-20.9Q742.07-22.25 744.52-22.98 746.97-23.7 749.42-23.7L749.42-23.7ZM751.47-10.45L746.17-9.3Q745.37-9.1 744.99-8.63 744.62-8.15 744.62-7.2L744.62-7.2Q744.62-5.9 745.32-5.18 746.02-4.45 747.27-4.45L747.27-4.45Q749.22-4.45 751.37-6.75L751.37-6.75 751.47-10.45ZM767.16-23.4L767.96-19.7 772.11-6.7 772.51-6.7 776.66-19.15 777.51-23.25 783.21-23.25 775.61-1.55Q774.41 1.85 772.91 3.93 771.41 6 769.16 7.33 766.91 8.65 763.36 9.6L763.36 9.6 762.86 9.55Q761.16 7.9 760.06 5.65L760.06 5.65 760.26 5Q763.41 4.45 765.46 3.38 767.51 2.3 769.36 0L769.36 0 760.86-23.1 767.16-23.4Z"
                                                                opacity="1" transform="matrix(1,0,0,1,0,0)"
                                                                fill="#edbbba" class="undefined-text-1"
                                                                data-fill-palette-color="secondary" id="text-1"></path>
                                                        </svg></g>
                                                </svg></g>
                                        </svg></g>
                                </svg></g>
                            <g transform="matrix(1,0,0,1,0,0.36254208991218206)"><svg
                                    viewBox="0 0 145.0168359648772 145.0168359648772" height="145.0168359648772"
                                    width="145.0168359648772">
                                    <g><svg xmlns="http://www.w3.org/2000/svg"
                                            xmlns:xlink="http://www.w3.org/1999/xlink" version="1.1" x="0" y="0"
                                            viewBox="10.781 10.781 78.43700027571951 78.43700027571951"
                                            enable-background="new 0 0 100 100" xml:space="preserve"
                                            height="145.0168359648772" width="145.0168359648772" class="icon-icon-0"
                                            data-fill-palette-color="accent" id="icon-0">
                                            <g fill="#eb606e" data-fill-palette-color="accent">
                                                <path
                                                    d="M51.736 33.487c-3.752 0.326-7.52-0.41-10.874-2.124-0.506 1.176-1.136 2.295-1.877 3.339 4.458 2.314 9.531 3.166 14.5 2.434C52.808 35.967 52.223 34.748 51.736 33.487z"
                                                    fill="#eb606e" data-fill-palette-color="accent"></path>
                                            </g>
                                            <g fill="#eb606e" data-fill-palette-color="accent">
                                                <path
                                                    d="M57.656 24.18c0-0.292-0.017-0.584-0.05-0.875-2.192 1.698-4.891 2.614-7.664 2.601-0.086 1.284-0.268 2.56-0.544 3.817 3.001 0.111 5.975-0.612 8.59-2.088C57.768 26.497 57.656 25.34 57.656 24.18z"
                                                    fill="#eb606e" data-fill-palette-color="accent"></path>
                                            </g>
                                            <g fill="#eb606e" data-fill-palette-color="accent">
                                                <path
                                                    d="M44.258 24.18c0 2.099-0.329 4.184-0.975 6.181 1.19 0.474 2.426 0.82 3.689 1.034 0.738-2.333 1.114-4.767 1.114-7.214 0-0.919 0.653-1.708 1.557-1.88 1.038-0.197 2.04 0.484 2.238 1.523 1.272-0.232 2.491-0.696 3.596-1.371-0.955-3.024-4.18-4.702-7.205-3.748C45.882 19.458 44.258 21.674 44.258 24.18z"
                                                    fill="#eb606e" data-fill-palette-color="accent"></path>
                                            </g>
                                            <g fill="#eb606e" data-fill-palette-color="accent">
                                                <path
                                                    d="M38.189 17.853c1.166 0.541 2.259 1.227 3.253 2.041 1.623-3.239 4.935-5.285 8.557-5.285 5.285 0 9.57 4.285 9.57 9.571 0 1.473 0.2 2.938 0.596 4.357 0.961-0.649 1.857-1.389 2.678-2.209 0.207-0.207 0.425-0.401 0.654-0.583-0.066-0.519-0.1-1.042-0.1-1.565 0-7.4-5.998-13.399-13.398-13.399C45.061 10.781 40.522 13.499 38.189 17.853z"
                                                    fill="#eb606e" data-fill-palette-color="accent"></path>
                                            </g>
                                            <g fill="#eb606e" data-fill-palette-color="accent">
                                                <path
                                                    d="M39.551 37.097c-2.422 2.883-5.607 5.027-9.19 6.186 0.474 1.19 0.82 2.426 1.034 3.689 4.788-1.516 8.978-4.501 11.974-8.533C42.063 38.092 40.787 37.643 39.551 37.097z"
                                                    fill="#eb606e" data-fill-palette-color="accent"></path>
                                            </g>
                                            <g fill="#eb606e" data-fill-palette-color="accent">
                                                <path
                                                    d="M37.156 26.329c-0.207-0.207-0.425-0.401-0.654-0.583-0.349 2.751-1.609 5.307-3.58 7.259 0.847 0.969 1.621 2 2.314 3.084 2.201-2.043 3.793-4.657 4.598-7.55C38.873 27.889 37.977 27.149 37.156 26.329z"
                                                    fill="#eb606e" data-fill-palette-color="accent"></path>
                                            </g>
                                            <g fill="#eb606e" data-fill-palette-color="accent">
                                                <path
                                                    d="M27.682 35.803c1.484 1.484 2.726 3.191 3.681 5.06 1.176-0.506 2.295-1.136 3.339-1.877-1.128-2.172-2.582-4.159-4.313-5.889-0.65-0.65-0.746-1.67-0.229-2.43 0.595-0.874 1.785-1.101 2.659-0.506 0.736-1.063 1.27-2.254 1.574-3.512-2.813-1.464-6.281-0.37-7.745 2.444C25.492 31.315 25.91 34.031 27.682 35.803z"
                                                    fill="#eb606e" data-fill-palette-color="accent"></path>
                                            </g>
                                            <g fill="#eb606e" data-fill-palette-color="accent">
                                                <path
                                                    d="M18.917 35.62c1.207-0.442 2.465-0.73 3.744-0.857-1.143-3.438-0.248-7.226 2.314-9.787 3.738-3.738 9.797-3.738 13.535 0 1.042 1.041 2.22 1.936 3.502 2.66 0.221-1.139 0.332-2.296 0.332-3.456 0-0.292 0.017-0.584 0.05-0.875-0.414-0.321-0.807-0.667-1.177-1.037-5.232-5.233-13.716-5.233-18.948 0C18.775 25.761 17.488 30.892 18.917 35.62z"
                                                    fill="#eb606e" data-fill-palette-color="accent"></path>
                                            </g>
                                            <g fill="#eb606e" data-fill-palette-color="accent">
                                                <path
                                                    d="M33.487 48.264c0.326 3.751-0.41 7.519-2.124 10.873 1.176 0.507 2.295 1.136 3.339 1.878 2.314-4.458 3.166-9.531 2.434-14.5C35.967 47.192 34.748 47.777 33.487 48.264z"
                                                    fill="#eb606e" data-fill-palette-color="accent"></path>
                                            </g>
                                            <g fill="#eb606e" data-fill-palette-color="accent">
                                                <path
                                                    d="M24.18 42.344c-0.292 0-0.584 0.017-0.875 0.05 1.698 2.193 2.614 4.891 2.601 7.664 1.284 0.086 2.56 0.269 3.817 0.544 0.111-3.001-0.612-5.974-2.088-8.59C26.497 42.232 25.34 42.344 24.18 42.344z"
                                                    fill="#eb606e" data-fill-palette-color="accent"></path>
                                            </g>
                                            <g fill="#eb606e" data-fill-palette-color="accent">
                                                <path
                                                    d="M24.18 55.742c2.099 0 4.184 0.329 6.181 0.975 0.474-1.189 0.82-2.426 1.034-3.688-2.333-0.738-4.767-1.114-7.214-1.114-0.919 0-1.708-0.653-1.88-1.557-0.197-1.038 0.484-2.041 1.523-2.238-0.232-1.273-0.696-2.492-1.371-3.596-3.024 0.954-4.702 4.179-3.748 7.204C19.458 54.117 21.674 55.742 24.18 55.742z"
                                                    fill="#eb606e" data-fill-palette-color="accent"></path>
                                            </g>
                                            <g fill="#eb606e" data-fill-palette-color="accent">
                                                <path
                                                    d="M17.853 61.811c0.541-1.166 1.227-2.259 2.041-3.254-3.239-1.622-5.285-4.934-5.285-8.557 0-5.286 4.285-9.57 9.571-9.57 1.473 0 2.938-0.2 4.357-0.595-0.649-0.961-1.389-1.858-2.209-2.678-0.207-0.207-0.401-0.425-0.583-0.654-0.519 0.066-1.042 0.1-1.565 0.1-7.4 0-13.399 5.999-13.399 13.398C10.781 54.939 13.499 59.479 17.853 61.811z"
                                                    fill="#eb606e" data-fill-palette-color="accent"></path>
                                            </g>
                                            <g fill="#eb606e" data-fill-palette-color="accent">
                                                <path
                                                    d="M37.097 60.448c2.883 2.423 5.027 5.608 6.186 9.19 1.19-0.473 2.426-0.819 3.689-1.033-1.516-4.788-4.501-8.978-8.533-11.974C38.092 57.938 37.643 59.213 37.097 60.448z"
                                                    fill="#eb606e" data-fill-palette-color="accent"></path>
                                            </g>
                                            <g fill="#eb606e" data-fill-palette-color="accent">
                                                <path
                                                    d="M26.329 62.844c-0.207 0.207-0.401 0.425-0.583 0.654 2.751 0.35 5.307 1.609 7.259 3.58 0.969-0.848 2-1.621 3.084-2.314-2.043-2.201-4.657-3.793-7.55-4.598C27.889 61.127 27.149 62.023 26.329 62.844z"
                                                    fill="#eb606e" data-fill-palette-color="accent"></path>
                                            </g>
                                            <g fill="#eb606e" data-fill-palette-color="accent">
                                                <path
                                                    d="M35.803 72.317c1.484-1.483 3.191-2.726 5.06-3.681-0.506-1.176-1.136-2.295-1.877-3.339-2.172 1.128-4.158 2.582-5.889 4.313-0.65 0.649-1.67 0.746-2.43 0.229-0.874-0.595-1.101-1.785-0.506-2.659-1.063-0.736-2.254-1.27-3.512-1.573-1.464 2.813-0.37 6.28 2.444 7.744C31.315 74.508 34.031 74.09 35.803 72.317z"
                                                    fill="#eb606e" data-fill-palette-color="accent"></path>
                                            </g>
                                            <g fill="#eb606e" data-fill-palette-color="accent">
                                                <path
                                                    d="M35.62 81.083c-0.442-1.207-0.73-2.465-0.857-3.744-3.438 1.144-7.226 0.247-9.788-2.313-3.737-3.738-3.737-9.798 0-13.535 1.042-1.041 1.937-2.22 2.661-3.502-1.139-0.221-2.296-0.332-3.456-0.332-0.292 0-0.584-0.017-0.875-0.05-0.321 0.413-0.667 0.807-1.037 1.177-5.233 5.232-5.233 13.716 0 18.948C25.761 81.225 30.892 82.512 35.62 81.083z"
                                                    fill="#eb606e" data-fill-palette-color="accent"></path>
                                            </g>
                                            <g fill="#eb606e" data-fill-palette-color="accent">
                                                <path
                                                    d="M48.264 66.513c3.751-0.326 7.519 0.41 10.873 2.124 0.507-1.176 1.136-2.295 1.878-3.339-4.458-2.314-9.531-3.166-14.5-2.434C47.192 64.033 47.777 65.252 48.264 66.513z"
                                                    fill="#eb606e" data-fill-palette-color="accent"></path>
                                            </g>
                                            <g fill="#eb606e" data-fill-palette-color="accent">
                                                <path
                                                    d="M42.344 75.82c0 0.292 0.017 0.584 0.05 0.875 2.193-1.699 4.891-2.614 7.664-2.602 0.086-1.284 0.269-2.561 0.544-3.817-3.001-0.111-5.974 0.611-8.59 2.088C42.232 73.503 42.344 74.66 42.344 75.82z"
                                                    fill="#eb606e" data-fill-palette-color="accent"></path>
                                            </g>
                                            <g fill="#eb606e" data-fill-palette-color="accent">
                                                <path
                                                    d="M55.742 75.82c0-2.1 0.329-4.185 0.975-6.182-1.189-0.473-2.426-0.819-3.688-1.033-0.738 2.334-1.114 4.767-1.114 7.215 0 0.919-0.653 1.708-1.557 1.88-1.038 0.197-2.041-0.484-2.238-1.522-1.273 0.231-2.492 0.695-3.596 1.37 0.954 3.024 4.179 4.702 7.204 3.748C54.117 80.542 55.742 78.326 55.742 75.82z"
                                                    fill="#eb606e" data-fill-palette-color="accent"></path>
                                            </g>
                                            <g fill="#eb606e" data-fill-palette-color="accent">
                                                <path
                                                    d="M61.811 82.146c-1.166-0.541-2.259-1.227-3.254-2.041-1.622 3.239-4.934 5.285-8.557 5.285-5.286 0-9.57-4.285-9.57-9.57 0-1.473-0.2-2.939-0.595-4.357-0.961 0.648-1.858 1.389-2.678 2.208-0.207 0.207-0.425 0.401-0.654 0.584 0.066 0.519 0.1 1.042 0.1 1.565 0 7.399 5.999 13.398 13.398 13.398C54.939 89.219 59.479 86.501 61.811 82.146z"
                                                    fill="#eb606e" data-fill-palette-color="accent"></path>
                                            </g>
                                            <g fill="#eb606e" data-fill-palette-color="accent">
                                                <path
                                                    d="M60.449 62.903c2.422-2.883 5.607-5.026 9.189-6.187-0.473-1.189-0.819-2.426-1.033-3.688-4.788 1.517-8.978 4.501-11.974 8.532C57.938 61.908 59.213 62.357 60.449 62.903z"
                                                    fill="#eb606e" data-fill-palette-color="accent"></path>
                                            </g>
                                            <g fill="#eb606e" data-fill-palette-color="accent">
                                                <path
                                                    d="M62.844 73.671c0.207 0.207 0.425 0.401 0.654 0.584 0.35-2.752 1.609-5.307 3.58-7.259-0.848-0.969-1.621-2-2.314-3.084-2.201 2.043-3.793 4.657-4.598 7.551C61.127 72.111 62.023 72.852 62.844 73.671z"
                                                    fill="#eb606e" data-fill-palette-color="accent"></path>
                                            </g>
                                            <g fill="#eb606e" data-fill-palette-color="accent">
                                                <path
                                                    d="M72.317 64.197c-1.483-1.484-2.726-3.191-3.681-5.061-1.176 0.507-2.295 1.136-3.339 1.878 1.128 2.173 2.582 4.158 4.313 5.89 0.649 0.649 0.746 1.67 0.229 2.43-0.595 0.874-1.785 1.101-2.659 0.506-0.736 1.063-1.27 2.254-1.573 3.512 2.813 1.464 6.28 0.369 7.744-2.443C74.508 68.685 74.09 65.969 72.317 64.197z"
                                                    fill="#eb606e" data-fill-palette-color="accent"></path>
                                            </g>
                                            <g fill="#eb606e" data-fill-palette-color="accent">
                                                <path
                                                    d="M81.083 64.38c-1.207 0.442-2.465 0.729-3.744 0.857 1.144 3.438 0.247 7.226-2.313 9.788-3.738 3.736-9.798 3.736-13.535 0-1.041-1.042-2.22-1.938-3.502-2.661-0.221 1.139-0.332 2.296-0.332 3.456 0 0.292-0.017 0.584-0.05 0.875 0.413 0.32 0.807 0.666 1.177 1.036 5.232 5.232 13.716 5.232 18.948 0C81.225 74.239 82.512 69.107 81.083 64.38z"
                                                    fill="#eb606e" data-fill-palette-color="accent"></path>
                                            </g>
                                            <g fill="#eb606e" data-fill-palette-color="accent">
                                                <path
                                                    d="M66.513 51.736c-0.326-3.752 0.41-7.52 2.124-10.874-1.176-0.506-2.295-1.136-3.339-1.877-2.314 4.458-3.166 9.531-2.434 14.5C64.033 52.808 65.252 52.223 66.513 51.736z"
                                                    fill="#eb606e" data-fill-palette-color="accent"></path>
                                            </g>
                                            <g fill="#eb606e" data-fill-palette-color="accent">
                                                <path
                                                    d="M75.82 57.656c0.292 0 0.584-0.017 0.875-0.05-1.699-2.192-2.614-4.891-2.602-7.664-1.284-0.086-2.561-0.268-3.817-0.544-0.111 3.001 0.611 5.975 2.088 8.59C73.503 57.768 74.66 57.656 75.82 57.656z"
                                                    fill="#eb606e" data-fill-palette-color="accent"></path>
                                            </g>
                                            <g fill="#eb606e" data-fill-palette-color="accent">
                                                <path
                                                    d="M75.82 44.258c-2.1 0-4.185-0.329-6.182-0.975-0.473 1.19-0.819 2.426-1.033 3.689 2.334 0.738 4.767 1.114 7.215 1.114 0.919 0 1.708 0.653 1.88 1.557 0.197 1.038-0.484 2.04-1.522 2.238 0.231 1.272 0.695 2.491 1.37 3.596 3.024-0.955 4.702-4.18 3.748-7.205C80.542 45.882 78.326 44.258 75.82 44.258z"
                                                    fill="#eb606e" data-fill-palette-color="accent"></path>
                                            </g>
                                            <g fill="#eb606e" data-fill-palette-color="accent">
                                                <path
                                                    d="M82.146 38.189c-0.541 1.166-1.227 2.259-2.041 3.253 3.239 1.623 5.285 4.935 5.285 8.557 0 5.285-4.285 9.57-9.57 9.57-1.473 0-2.939 0.2-4.357 0.596 0.648 0.961 1.389 1.857 2.208 2.678 0.207 0.207 0.401 0.425 0.584 0.654 0.519-0.066 1.042-0.1 1.565-0.1 7.399 0 13.398-5.998 13.398-13.398C89.219 45.061 86.501 40.522 82.146 38.189z"
                                                    fill="#eb606e" data-fill-palette-color="accent"></path>
                                            </g>
                                            <g fill="#eb606e" data-fill-palette-color="accent">
                                                <path
                                                    d="M62.903 39.551c-2.883-2.422-5.026-5.607-6.187-9.19-1.189 0.474-2.426 0.82-3.688 1.034 1.517 4.788 4.501 8.978 8.532 11.974C61.908 42.063 62.357 40.787 62.903 39.551z"
                                                    fill="#eb606e" data-fill-palette-color="accent"></path>
                                            </g>
                                            <g fill="#eb606e" data-fill-palette-color="accent">
                                                <path
                                                    d="M73.671 37.156c0.207-0.207 0.401-0.425 0.584-0.654-2.752-0.349-5.307-1.609-7.259-3.58-0.969 0.847-2 1.621-3.084 2.314 2.043 2.201 4.657 3.793 7.551 4.598C72.111 38.873 72.852 37.977 73.671 37.156z"
                                                    fill="#eb606e" data-fill-palette-color="accent"></path>
                                            </g>
                                            <g fill="#eb606e" data-fill-palette-color="accent">
                                                <path
                                                    d="M64.197 27.682c-1.484 1.484-3.191 2.726-5.061 3.681 0.507 1.176 1.136 2.295 1.878 3.339 2.173-1.128 4.158-2.582 5.89-4.313 0.649-0.65 1.67-0.746 2.43-0.229 0.874 0.595 1.101 1.785 0.506 2.659 1.063 0.736 2.254 1.27 3.512 1.574 1.464-2.813 0.369-6.281-2.443-7.745C68.685 25.492 65.969 25.91 64.197 27.682z"
                                                    fill="#eb606e" data-fill-palette-color="accent"></path>
                                            </g>
                                            <g fill="#eb606e" data-fill-palette-color="accent">
                                                <path
                                                    d="M64.38 18.917c0.442 1.207 0.729 2.465 0.857 3.744 3.438-1.143 7.226-0.248 9.788 2.314 3.736 3.737 3.736 9.797 0 13.534-1.042 1.042-1.938 2.22-2.661 3.502 1.139 0.221 2.296 0.332 3.456 0.332 0.292 0 0.584 0.017 0.875 0.05 0.32-0.414 0.666-0.807 1.036-1.177 5.232-5.232 5.232-13.716 0-18.948C74.239 18.775 69.107 17.488 64.38 18.917z"
                                                    fill="#eb606e" data-fill-palette-color="accent"></path>
                                            </g>
                                        </svg>
                                        <g></g>
                                    </g>
                                </svg></g>
                        </svg></g>
                </svg>
                <rect width="395.52" height="97.23783123072033" fill="none" stroke="none" visibility="hidden"></rect>
            </g>
        </svg></g>
</svg>