<?xml version="1.0" encoding="utf-8"?>
<svg viewBox="0 0 1000 244" xmlns="http://www.w3.org/2000/svg">
  <g transform="matrix(1, 0, 0, 1, -0.606061, 0.299128)">
    <svg viewBox="0 0 396 97" data-background-color="#5c3a37" preserveAspectRatio="xMidYMid meet" height="244" width="1000" xmlns="http://www.w3.org/2000/svg">
      <g id="tight-bounds" transform="matrix(1,0,0,1,0.2400000000000091,-0.1189156153601516)">
        <svg viewBox="0 0 395.52 97.23783123072033" height="97.23783123072033" width="395.52">
          <g>
            <svg viewBox="0 0 592.8129363442749 145.74192014470157" height="97.23783123072033" width="395.52">
              <g>
                <rect width="8.383488809794262" height="145.74192014470157" x="166.96314174967893" y="0" fill="#f9d995" opacity="1" stroke-width="0" stroke="transparent" fill-opacity="1" class="rect-si-0" data-fill-palette-color="primary" rx="1%" id="si-0" data-palette-color="#f9d995"/>
                <path d="M 238.378 26.211 C 243.035 26.211 247.504 26.847 251.781 28.122 C 256.058 29.414 259.908 31.296 263.33 33.768 L 261.762 40.47 L 260.621 40.612 C 253.968 35.288 246.457 32.628 238.093 32.628 C 227.921 32.628 220.157 36.05 214.795 42.893 C 209.414 49.737 206.725 59.624 206.725 72.55 C 206.725 85.477 209.34 95.335 214.567 102.122 C 219.794 108.928 227.306 112.33 237.095 112.33 C 241.467 112.33 245.793 111.54 250.07 109.964 C 254.347 108.404 258.34 106.199 262.047 103.348 L 263.187 103.776 L 262.617 110.762 C 254.442 116.18 245.793 118.889 236.667 118.889 C 224.691 118.889 215.451 114.917 208.95 106.969 C 202.428 99.042 199.169 87.712 199.169 72.978 C 199.169 58.055 202.571 46.524 209.377 38.388 C 216.164 30.269 225.831 26.211 238.378 26.211 Z M 392.651 26.924 L 358.574 118.034 L 351.017 118.034 L 331.056 60.573 L 330.343 60.573 L 308.956 118.034 L 301.399 118.034 L 270.602 26.924 L 278.159 26.924 L 279.869 34.481 L 305.249 109.051 L 305.962 109.051 L 327.777 50.308 L 319.65 26.924 L 327.349 26.924 L 329.345 35.051 L 354.725 109.051 L 355.58 109.051 L 383.383 34.766 L 385.38 26.924 L 392.651 26.924 Z M 416.034 26.924 L 415.749 89.945 L 416.034 118.034 L 408.62 118.034 L 408.905 90.373 L 408.62 26.924 L 416.034 26.924 Z M 466.508 26.924 L 427.013 69.556 C 440.037 85.904 454.009 101.543 468.932 116.465 L 468.932 117.463 C 467.506 118.034 465.273 118.604 462.231 119.174 L 461.233 118.747 C 445.455 102.207 431.339 85.953 418.886 69.984 L 418.886 69.413 L 451.68 34.196 L 457.668 26.924 L 466.508 26.924 Z M 594.689 26.924 L 560.612 118.034 L 553.055 118.034 L 533.094 60.573 L 532.381 60.573 L 510.993 118.034 L 503.437 118.034 L 472.639 26.924 L 480.196 26.924 L 481.907 34.481 L 507.286 109.051 L 507.999 109.051 L 529.814 50.308 L 521.687 26.924 L 529.386 26.924 L 531.383 35.051 L 556.762 109.051 L 557.617 109.051 L 585.421 34.766 L 587.417 26.924 L 594.689 26.924 Z" data-fill-palette-color="primary" fill="#f9d995" opacity="1"/>
              </g>
              <g transform="matrix(1,0,0,1,197.29293634427492,0.36254208991218206)">
                <svg viewBox="0 0 395.52 145.0168359648772" height="145.0168359648772" width="395.52">
                  <g>
                    <svg viewBox="0 0 395.52 145.0168359648772" height="145.0168359648772" width="395.52">
                      <g>
                        <svg viewBox="0 0 395.52 101.5177505407354" height="101.5177505407354" width="395.52">
                          <g transform="matrix(1,0,0,1,0,0)">
                            <svg width="395.52" viewBox="2.1500000000000017 -32.2 138.7 32.6" height="101.5177505407354" data-palette-color="#f9d995">
                              <svg/>
                              <g class="undefined-text-0" data-fill-palette-color="primary" id="text-0"/>
                            </svg>
                          </g>
                        </svg>
                      </g>
                      <g transform="matrix(1,0,0,1,0,123.46405632553714)">
                        <svg viewBox="0 0 375.74399999999997 21.55277963934007" height="21.55277963934007" width="375.74399999999997">
                          <g transform="matrix(1,0,0,1,0,0)">
                            <svg width="375.74399999999997" viewBox="1.4 -35.1 781.8100000000001 44.85" height="21.55277963934007" data-palette-color="#edbbba"/>
                          </g>
                        </svg>
                      </g>
                    </svg>
                  </g>
                </svg>
              </g>
              <g transform="matrix(1,0,0,1,0,0.36254208991218206)">
                <svg viewBox="0 0 145.0168359648772 145.0168359648772" height="145.0168359648772" width="145.0168359648772">
                  <g>
                    <svg xmlns="http://www.w3.org/2000/svg" version="1.1" x="0" y="0" viewBox="10.781 10.781 78.43700027571951 78.43700027571951" enable-background="new 0 0 100 100" height="145.0168359648772" width="145.0168359648772" class="icon-icon-0" data-fill-palette-color="accent" id="icon-0">
                      <g fill="#eb606e" data-fill-palette-color="accent">
                        <path d="M51.736 33.487c-3.752 0.326-7.52-0.41-10.874-2.124-0.506 1.176-1.136 2.295-1.877 3.339 4.458 2.314 9.531 3.166 14.5 2.434C52.808 35.967 52.223 34.748 51.736 33.487z" fill="#eb606e" data-fill-palette-color="accent"/>
                      </g>
                      <g fill="#eb606e" data-fill-palette-color="accent">
                        <path d="M57.656 24.18c0-0.292-0.017-0.584-0.05-0.875-2.192 1.698-4.891 2.614-7.664 2.601-0.086 1.284-0.268 2.56-0.544 3.817 3.001 0.111 5.975-0.612 8.59-2.088C57.768 26.497 57.656 25.34 57.656 24.18z" fill="#eb606e" data-fill-palette-color="accent"/>
                      </g>
                      <g fill="#eb606e" data-fill-palette-color="accent">
                        <path d="M44.258 24.18c0 2.099-0.329 4.184-0.975 6.181 1.19 0.474 2.426 0.82 3.689 1.034 0.738-2.333 1.114-4.767 1.114-7.214 0-0.919 0.653-1.708 1.557-1.88 1.038-0.197 2.04 0.484 2.238 1.523 1.272-0.232 2.491-0.696 3.596-1.371-0.955-3.024-4.18-4.702-7.205-3.748C45.882 19.458 44.258 21.674 44.258 24.18z" fill="#eb606e" data-fill-palette-color="accent"/>
                      </g>
                      <g fill="#eb606e" data-fill-palette-color="accent">
                        <path d="M38.189 17.853c1.166 0.541 2.259 1.227 3.253 2.041 1.623-3.239 4.935-5.285 8.557-5.285 5.285 0 9.57 4.285 9.57 9.571 0 1.473 0.2 2.938 0.596 4.357 0.961-0.649 1.857-1.389 2.678-2.209 0.207-0.207 0.425-0.401 0.654-0.583-0.066-0.519-0.1-1.042-0.1-1.565 0-7.4-5.998-13.399-13.398-13.399C45.061 10.781 40.522 13.499 38.189 17.853z" fill="#eb606e" data-fill-palette-color="accent"/>
                      </g>
                      <g fill="#eb606e" data-fill-palette-color="accent">
                        <path d="M39.551 37.097c-2.422 2.883-5.607 5.027-9.19 6.186 0.474 1.19 0.82 2.426 1.034 3.689 4.788-1.516 8.978-4.501 11.974-8.533C42.063 38.092 40.787 37.643 39.551 37.097z" fill="#eb606e" data-fill-palette-color="accent"/>
                      </g>
                      <g fill="#eb606e" data-fill-palette-color="accent">
                        <path d="M37.156 26.329c-0.207-0.207-0.425-0.401-0.654-0.583-0.349 2.751-1.609 5.307-3.58 7.259 0.847 0.969 1.621 2 2.314 3.084 2.201-2.043 3.793-4.657 4.598-7.55C38.873 27.889 37.977 27.149 37.156 26.329z" fill="#eb606e" data-fill-palette-color="accent"/>
                      </g>
                      <g fill="#eb606e" data-fill-palette-color="accent">
                        <path d="M27.682 35.803c1.484 1.484 2.726 3.191 3.681 5.06 1.176-0.506 2.295-1.136 3.339-1.877-1.128-2.172-2.582-4.159-4.313-5.889-0.65-0.65-0.746-1.67-0.229-2.43 0.595-0.874 1.785-1.101 2.659-0.506 0.736-1.063 1.27-2.254 1.574-3.512-2.813-1.464-6.281-0.37-7.745 2.444C25.492 31.315 25.91 34.031 27.682 35.803z" fill="#eb606e" data-fill-palette-color="accent"/>
                      </g>
                      <g fill="#eb606e" data-fill-palette-color="accent">
                        <path d="M18.917 35.62c1.207-0.442 2.465-0.73 3.744-0.857-1.143-3.438-0.248-7.226 2.314-9.787 3.738-3.738 9.797-3.738 13.535 0 1.042 1.041 2.22 1.936 3.502 2.66 0.221-1.139 0.332-2.296 0.332-3.456 0-0.292 0.017-0.584 0.05-0.875-0.414-0.321-0.807-0.667-1.177-1.037-5.232-5.233-13.716-5.233-18.948 0C18.775 25.761 17.488 30.892 18.917 35.62z" fill="#eb606e" data-fill-palette-color="accent"/>
                      </g>
                      <g fill="#eb606e" data-fill-palette-color="accent">
                        <path d="M33.487 48.264c0.326 3.751-0.41 7.519-2.124 10.873 1.176 0.507 2.295 1.136 3.339 1.878 2.314-4.458 3.166-9.531 2.434-14.5C35.967 47.192 34.748 47.777 33.487 48.264z" fill="#eb606e" data-fill-palette-color="accent"/>
                      </g>
                      <g fill="#eb606e" data-fill-palette-color="accent">
                        <path d="M24.18 42.344c-0.292 0-0.584 0.017-0.875 0.05 1.698 2.193 2.614 4.891 2.601 7.664 1.284 0.086 2.56 0.269 3.817 0.544 0.111-3.001-0.612-5.974-2.088-8.59C26.497 42.232 25.34 42.344 24.18 42.344z" fill="#eb606e" data-fill-palette-color="accent"/>
                      </g>
                      <g fill="#eb606e" data-fill-palette-color="accent">
                        <path d="M24.18 55.742c2.099 0 4.184 0.329 6.181 0.975 0.474-1.189 0.82-2.426 1.034-3.688-2.333-0.738-4.767-1.114-7.214-1.114-0.919 0-1.708-0.653-1.88-1.557-0.197-1.038 0.484-2.041 1.523-2.238-0.232-1.273-0.696-2.492-1.371-3.596-3.024 0.954-4.702 4.179-3.748 7.204C19.458 54.117 21.674 55.742 24.18 55.742z" fill="#eb606e" data-fill-palette-color="accent"/>
                      </g>
                      <g fill="#eb606e" data-fill-palette-color="accent">
                        <path d="M17.853 61.811c0.541-1.166 1.227-2.259 2.041-3.254-3.239-1.622-5.285-4.934-5.285-8.557 0-5.286 4.285-9.57 9.571-9.57 1.473 0 2.938-0.2 4.357-0.595-0.649-0.961-1.389-1.858-2.209-2.678-0.207-0.207-0.401-0.425-0.583-0.654-0.519 0.066-1.042 0.1-1.565 0.1-7.4 0-13.399 5.999-13.399 13.398C10.781 54.939 13.499 59.479 17.853 61.811z" fill="#eb606e" data-fill-palette-color="accent"/>
                      </g>
                      <g fill="#eb606e" data-fill-palette-color="accent">
                        <path d="M37.097 60.448c2.883 2.423 5.027 5.608 6.186 9.19 1.19-0.473 2.426-0.819 3.689-1.033-1.516-4.788-4.501-8.978-8.533-11.974C38.092 57.938 37.643 59.213 37.097 60.448z" fill="#eb606e" data-fill-palette-color="accent"/>
                      </g>
                      <g fill="#eb606e" data-fill-palette-color="accent">
                        <path d="M26.329 62.844c-0.207 0.207-0.401 0.425-0.583 0.654 2.751 0.35 5.307 1.609 7.259 3.58 0.969-0.848 2-1.621 3.084-2.314-2.043-2.201-4.657-3.793-7.55-4.598C27.889 61.127 27.149 62.023 26.329 62.844z" fill="#eb606e" data-fill-palette-color="accent"/>
                      </g>
                      <g fill="#eb606e" data-fill-palette-color="accent">
                        <path d="M35.803 72.317c1.484-1.483 3.191-2.726 5.06-3.681-0.506-1.176-1.136-2.295-1.877-3.339-2.172 1.128-4.158 2.582-5.889 4.313-0.65 0.649-1.67 0.746-2.43 0.229-0.874-0.595-1.101-1.785-0.506-2.659-1.063-0.736-2.254-1.27-3.512-1.573-1.464 2.813-0.37 6.28 2.444 7.744C31.315 74.508 34.031 74.09 35.803 72.317z" fill="#eb606e" data-fill-palette-color="accent"/>
                      </g>
                      <g fill="#eb606e" data-fill-palette-color="accent">
                        <path d="M35.62 81.083c-0.442-1.207-0.73-2.465-0.857-3.744-3.438 1.144-7.226 0.247-9.788-2.313-3.737-3.738-3.737-9.798 0-13.535 1.042-1.041 1.937-2.22 2.661-3.502-1.139-0.221-2.296-0.332-3.456-0.332-0.292 0-0.584-0.017-0.875-0.05-0.321 0.413-0.667 0.807-1.037 1.177-5.233 5.232-5.233 13.716 0 18.948C25.761 81.225 30.892 82.512 35.62 81.083z" fill="#eb606e" data-fill-palette-color="accent"/>
                      </g>
                      <g fill="#eb606e" data-fill-palette-color="accent">
                        <path d="M48.264 66.513c3.751-0.326 7.519 0.41 10.873 2.124 0.507-1.176 1.136-2.295 1.878-3.339-4.458-2.314-9.531-3.166-14.5-2.434C47.192 64.033 47.777 65.252 48.264 66.513z" fill="#eb606e" data-fill-palette-color="accent"/>
                      </g>
                      <g fill="#eb606e" data-fill-palette-color="accent">
                        <path d="M42.344 75.82c0 0.292 0.017 0.584 0.05 0.875 2.193-1.699 4.891-2.614 7.664-2.602 0.086-1.284 0.269-2.561 0.544-3.817-3.001-0.111-5.974 0.611-8.59 2.088C42.232 73.503 42.344 74.66 42.344 75.82z" fill="#eb606e" data-fill-palette-color="accent"/>
                      </g>
                      <g fill="#eb606e" data-fill-palette-color="accent">
                        <path d="M55.742 75.82c0-2.1 0.329-4.185 0.975-6.182-1.189-0.473-2.426-0.819-3.688-1.033-0.738 2.334-1.114 4.767-1.114 7.215 0 0.919-0.653 1.708-1.557 1.88-1.038 0.197-2.041-0.484-2.238-1.522-1.273 0.231-2.492 0.695-3.596 1.37 0.954 3.024 4.179 4.702 7.204 3.748C54.117 80.542 55.742 78.326 55.742 75.82z" fill="#eb606e" data-fill-palette-color="accent"/>
                      </g>
                      <g fill="#eb606e" data-fill-palette-color="accent">
                        <path d="M61.811 82.146c-1.166-0.541-2.259-1.227-3.254-2.041-1.622 3.239-4.934 5.285-8.557 5.285-5.286 0-9.57-4.285-9.57-9.57 0-1.473-0.2-2.939-0.595-4.357-0.961 0.648-1.858 1.389-2.678 2.208-0.207 0.207-0.425 0.401-0.654 0.584 0.066 0.519 0.1 1.042 0.1 1.565 0 7.399 5.999 13.398 13.398 13.398C54.939 89.219 59.479 86.501 61.811 82.146z" fill="#eb606e" data-fill-palette-color="accent"/>
                      </g>
                      <g fill="#eb606e" data-fill-palette-color="accent">
                        <path d="M60.449 62.903c2.422-2.883 5.607-5.026 9.189-6.187-0.473-1.189-0.819-2.426-1.033-3.688-4.788 1.517-8.978 4.501-11.974 8.532C57.938 61.908 59.213 62.357 60.449 62.903z" fill="#eb606e" data-fill-palette-color="accent"/>
                      </g>
                      <g fill="#eb606e" data-fill-palette-color="accent">
                        <path d="M62.844 73.671c0.207 0.207 0.425 0.401 0.654 0.584 0.35-2.752 1.609-5.307 3.58-7.259-0.848-0.969-1.621-2-2.314-3.084-2.201 2.043-3.793 4.657-4.598 7.551C61.127 72.111 62.023 72.852 62.844 73.671z" fill="#eb606e" data-fill-palette-color="accent"/>
                      </g>
                      <g fill="#eb606e" data-fill-palette-color="accent">
                        <path d="M72.317 64.197c-1.483-1.484-2.726-3.191-3.681-5.061-1.176 0.507-2.295 1.136-3.339 1.878 1.128 2.173 2.582 4.158 4.313 5.89 0.649 0.649 0.746 1.67 0.229 2.43-0.595 0.874-1.785 1.101-2.659 0.506-0.736 1.063-1.27 2.254-1.573 3.512 2.813 1.464 6.28 0.369 7.744-2.443C74.508 68.685 74.09 65.969 72.317 64.197z" fill="#eb606e" data-fill-palette-color="accent"/>
                      </g>
                      <g fill="#eb606e" data-fill-palette-color="accent">
                        <path d="M81.083 64.38c-1.207 0.442-2.465 0.729-3.744 0.857 1.144 3.438 0.247 7.226-2.313 9.788-3.738 3.736-9.798 3.736-13.535 0-1.041-1.042-2.22-1.938-3.502-2.661-0.221 1.139-0.332 2.296-0.332 3.456 0 0.292-0.017 0.584-0.05 0.875 0.413 0.32 0.807 0.666 1.177 1.036 5.232 5.232 13.716 5.232 18.948 0C81.225 74.239 82.512 69.107 81.083 64.38z" fill="#eb606e" data-fill-palette-color="accent"/>
                      </g>
                      <g fill="#eb606e" data-fill-palette-color="accent">
                        <path d="M66.513 51.736c-0.326-3.752 0.41-7.52 2.124-10.874-1.176-0.506-2.295-1.136-3.339-1.877-2.314 4.458-3.166 9.531-2.434 14.5C64.033 52.808 65.252 52.223 66.513 51.736z" fill="#eb606e" data-fill-palette-color="accent"/>
                      </g>
                      <g fill="#eb606e" data-fill-palette-color="accent">
                        <path d="M75.82 57.656c0.292 0 0.584-0.017 0.875-0.05-1.699-2.192-2.614-4.891-2.602-7.664-1.284-0.086-2.561-0.268-3.817-0.544-0.111 3.001 0.611 5.975 2.088 8.59C73.503 57.768 74.66 57.656 75.82 57.656z" fill="#eb606e" data-fill-palette-color="accent"/>
                      </g>
                      <g fill="#eb606e" data-fill-palette-color="accent">
                        <path d="M75.82 44.258c-2.1 0-4.185-0.329-6.182-0.975-0.473 1.19-0.819 2.426-1.033 3.689 2.334 0.738 4.767 1.114 7.215 1.114 0.919 0 1.708 0.653 1.88 1.557 0.197 1.038-0.484 2.04-1.522 2.238 0.231 1.272 0.695 2.491 1.37 3.596 3.024-0.955 4.702-4.18 3.748-7.205C80.542 45.882 78.326 44.258 75.82 44.258z" fill="#eb606e" data-fill-palette-color="accent"/>
                      </g>
                      <g fill="#eb606e" data-fill-palette-color="accent">
                        <path d="M82.146 38.189c-0.541 1.166-1.227 2.259-2.041 3.253 3.239 1.623 5.285 4.935 5.285 8.557 0 5.285-4.285 9.57-9.57 9.57-1.473 0-2.939 0.2-4.357 0.596 0.648 0.961 1.389 1.857 2.208 2.678 0.207 0.207 0.401 0.425 0.584 0.654 0.519-0.066 1.042-0.1 1.565-0.1 7.399 0 13.398-5.998 13.398-13.398C89.219 45.061 86.501 40.522 82.146 38.189z" fill="#eb606e" data-fill-palette-color="accent"/>
                      </g>
                      <g fill="#eb606e" data-fill-palette-color="accent">
                        <path d="M62.903 39.551c-2.883-2.422-5.026-5.607-6.187-9.19-1.189 0.474-2.426 0.82-3.688 1.034 1.517 4.788 4.501 8.978 8.532 11.974C61.908 42.063 62.357 40.787 62.903 39.551z" fill="#eb606e" data-fill-palette-color="accent"/>
                      </g>
                      <g fill="#eb606e" data-fill-palette-color="accent">
                        <path d="M73.671 37.156c0.207-0.207 0.401-0.425 0.584-0.654-2.752-0.349-5.307-1.609-7.259-3.58-0.969 0.847-2 1.621-3.084 2.314 2.043 2.201 4.657 3.793 7.551 4.598C72.111 38.873 72.852 37.977 73.671 37.156z" fill="#eb606e" data-fill-palette-color="accent"/>
                      </g>
                      <g fill="#eb606e" data-fill-palette-color="accent">
                        <path d="M64.197 27.682c-1.484 1.484-3.191 2.726-5.061 3.681 0.507 1.176 1.136 2.295 1.878 3.339 2.173-1.128 4.158-2.582 5.89-4.313 0.649-0.65 1.67-0.746 2.43-0.229 0.874 0.595 1.101 1.785 0.506 2.659 1.063 0.736 2.254 1.27 3.512 1.574 1.464-2.813 0.369-6.281-2.443-7.745C68.685 25.492 65.969 25.91 64.197 27.682z" fill="#eb606e" data-fill-palette-color="accent"/>
                      </g>
                      <g fill="#eb606e" data-fill-palette-color="accent">
                        <path d="M64.38 18.917c0.442 1.207 0.729 2.465 0.857 3.744 3.438-1.143 7.226-0.248 9.788 2.314 3.736 3.737 3.736 9.797 0 13.534-1.042 1.042-1.938 2.22-2.661 3.502 1.139 0.221 2.296 0.332 3.456 0.332 0.292 0 0.584 0.017 0.875 0.05 0.32-0.414 0.666-0.807 1.036-1.177 5.232-5.232 5.232-13.716 0-18.948C74.239 18.775 69.107 17.488 64.38 18.917z" fill="#eb606e" data-fill-palette-color="accent"/>
                      </g>
                    </svg>
                    <g/>
                  </g>
                </svg>
              </g>
            </svg>
          </g>
        </svg>
        <rect width="395.52" height="97.23783123072033" fill="none" stroke="none" visibility="hidden"/>
      </g>
    </svg>
  </g>
</svg>